# xmcd
#
# Track frame offsets:
#	150
#	13119
#	33327
#	50512
#	67770
#	88995
#	108849
#	123864
#	142907
#	163264
#	179689
#	197617
#	212655
#	230704
#	245707
#	261695
#	278553
#	294014
#	308621
#
# Disc length: 4361 seconds
#
# Revision: 0
# Processed by: cddbd v1.5.1PL2 Copyright (c) Steve Scherf et al.
# Submitted via: EasyCDDAExtractor 9.0.0.1
#
DISCID=13110713
DTITLE=Shania Twain - UP! - Green Disk (Country Mix)
DYEAR=2002
DGENRE=Country
TTITLE0=Up! (Green Disc)
TTITLE1=I'm Gonna Getcha Good! (Green Disc)
TTITLE2=She's Not Just A Pretty Face (Green Disc)
TTITLE3=Juanita (Green Disc)
TTITLE4=Forever And For Always (Green Disc)
TTITLE5=Ain't No Paticular Way (Green Disc)
TTITLE6=It Only Hurts When I'm Breathing (Green Disc)
TTITLE7=Nah! (Green Disc)
TTITLE8=(Wanna Get To Know You) That Good! (Green Disc)
TTITLE9=C'est La Vie (Green Disc)
TTITLE10=I'm Jealous (Green Disc)
TTITLE11=Ka-Ching! (Green Disc)
TTITLE12=Thank You Baby! (Green Disc)
TTITLE13=Waiter Bring Me Water (Green Disc)
TTITLE14=What A Way To Wanna Be! (Green Disc)
TTITLE15=I Ain't Goin' Down (Green Disc)
TTITLE16=I'm Not In The Mood (To Say No)! (Green Disc)
TTITLE17=In My Car (I'll Be The Driver) (Green Disc)
TTITLE18=When You Kiss Me (Green Disc)
EXTD=YEAR: 2002 ID3G: 17\n
EXTT0=
EXTT1=
EXTT2=
EXTT3=
EXTT4=
EXTT5=
EXTT6=
EXTT7=
EXTT8=
EXTT9=
EXTT10=
EXTT11=
EXTT12=
EXTT13=
EXTT14=
EXTT15=
EXTT16=
EXTT17=
EXTT18=
PLAYORDER=
